<?xml version="1.0" encoding="utf-8"?>
<svg version="1.1" xmlns:xlink="http://www.w3.org/1999/xlink" width="330px" height="88px" xmlns="http://www.w3.org/2000/svg">
  <defs>
    <filter x="-5px" y="-5px" width="330px" height="88px" filterUnits="userSpaceOnUse" id="filter56">
      <feOffset dx="0" dy="0" in="SourceAlpha" result="shadowOffsetInner" />
      <feGaussianBlur stdDeviation="2.5" in="shadowOffsetInner" result="shadowGaussian" />
      <feComposite in2="shadowGaussian" operator="atop" in="SourceAlpha" result="shadowComposite" />
      <feColorMatrix type="matrix" values="0 0 0 0 0  0 0 0 0 0  0 0 0 0 0  0 0 0 0.694117647058824 0  " in="shadowComposite" />
    </filter>
    <g id="widget57">
      <path d="M 0 30  L 81.4942368986931 30  C 91.6773975630929 29.5323449018471  101.765748468616 27.2571854551478  110.867485320823 22.6621386565063  C 113.45993966512 21.3531019630581  116.064245229277 19.8204257433943  118.529298960083 18.0313095336702  C 130.848642004184 9.08274662469974  146.708856927408 0  160 0  C 173.291143072592 0  189.151357995816 9.08274662469974  201.467738234952 18.0283276733206  C 203.929829160793 19.8174438830448  206.537097529915 21.3501201027085  209.129551874212 22.6591567961567  C 218.234251531384 27.2542035947983  228.319639631942 29.5293630414976  238.502800296342 30  L 320 30  L 320 78  L 0 78  L 0 30  Z " fill-rule="nonzero" fill="#333333" stroke="none" fill-opacity="0.996078431372549" />
    </g>
  </defs>
  <g transform="matrix(1 0 0 1 5 5 )">
    <use xlink:href="#widget57" filter="url(#filter56)" />
    <use xlink:href="#widget57" />
  </g>
</svg>