<?xml version="1.0" encoding="utf-8"?>
<!-- Generator: Adobe Illustrator 24.0.1, SVG Export Plug-In . SVG Version: 6.00 Build 0)  -->
<svg version="1.1" id="back" xmlns="http://www.w3.org/2000/svg" xmlns:xlink="http://www.w3.org/1999/xlink" x="0px" y="0px"
	 viewBox="0 0 92 84.4" style="enable-background:new 0 0 92 84.4;" xml:space="preserve">
<style type="text/css">
	.st0{fill:url(#SVGID_1_);}
	.st1{fill:url(#SVGID_2_);}
	.st2{fill:url(#SVGID_3_);}
</style>
<g id="widget22_1_">
	
		<linearGradient id="SVGID_1_" gradientUnits="userSpaceOnUse" x1="99.0996" y1="27.9948" x2="16.4812" y2="110.7458" gradientTransform="matrix(1 0 0 -1 7 94)">
		<stop  offset="0" style="stop-color:#00FF00"/>
		<stop  offset="1.000000e-02" style="stop-color:#00FD01"/>
		<stop  offset="0.18" style="stop-color:#00D011"/>
		<stop  offset="0.34" style="stop-color:#00AA1F"/>
		<stop  offset="0.51" style="stop-color:#008D29"/>
		<stop  offset="0.68" style="stop-color:#007931"/>
		<stop  offset="0.84" style="stop-color:#006C35"/>
		<stop  offset="1" style="stop-color:#006837"/>
	</linearGradient>
	<path class="st0" d="M92,0v79.2c0.9,0-40.1,0.6-42.5-36.2C47,5-8.6,39.9,6.8,0H92z"/>
</g>
<g transform="matrix(1 0 0 1 -242 -13 )">
	<g>
		<g id="widget33">
			
				<linearGradient id="SVGID_2_" gradientUnits="userSpaceOnUse" x1="308.2363" y1="66.912" x2="256.2255" y2="68.7143" gradientTransform="matrix(1 0 0 -1 5 121)">
				<stop  offset="0" style="stop-color:#00FF00"/>
				<stop  offset="1.000000e-02" style="stop-color:#00FD01"/>
				<stop  offset="0.18" style="stop-color:#00D011"/>
				<stop  offset="0.34" style="stop-color:#00AA1F"/>
				<stop  offset="0.51" style="stop-color:#008D29"/>
				<stop  offset="0.68" style="stop-color:#007931"/>
				<stop  offset="0.84" style="stop-color:#006C35"/>
				<stop  offset="1" style="stop-color:#006837"/>
			</linearGradient>
			<path class="st1" d="M272,41.4c-5,17.1-18.8,22-2.9,30.1c2.9,1.5,6.2,2.2,9.4,2.2c10.6-0.2,35.7-2.2,34.8-18.1
				C312.1,35.5,277.4,22.8,272,41.4z"/>
		</g>
	</g>
	<g>
		<g id="widget33_1_">
			
				<linearGradient id="SVGID_3_" gradientUnits="userSpaceOnUse" x1="308.2363" y1="66.912" x2="256.2255" y2="68.7143" gradientTransform="matrix(1 0 0 -1 5 121)">
				<stop  offset="0" style="stop-color:#00FF00"/>
				<stop  offset="1.000000e-02" style="stop-color:#00FD01"/>
				<stop  offset="0.18" style="stop-color:#00D011"/>
				<stop  offset="0.34" style="stop-color:#00AA1F"/>
				<stop  offset="0.51" style="stop-color:#008D29"/>
				<stop  offset="0.68" style="stop-color:#007931"/>
				<stop  offset="0.84" style="stop-color:#006C35"/>
				<stop  offset="1" style="stop-color:#006837"/>
			</linearGradient>
			<path class="st2" d="M272,41.4c-5,17.1-18.8,22-2.9,30.1c2.9,1.5,6.2,2.2,9.4,2.2c10.6-0.2,35.7-2.2,34.8-18.1
				C312.1,35.5,277.4,22.8,272,41.4z"/>
		</g>
	</g>
</g>
</svg>
