<?xml version="1.0" encoding="utf-8"?>
<!-- Generator: Adobe Illustrator 24.0.1, SVG Export Plug-In . SVG Version: 6.00 Build 0)  -->
<svg version="1.1" id="Camada_1" xmlns="http://www.w3.org/2000/svg" xmlns:xlink="http://www.w3.org/1999/xlink" x="0px" y="0px"
	 viewBox="0 0 399.4 859.4" style="enable-background:new 0 0 399.4 859.4;" xml:space="preserve">
<style type="text/css">
	.st0{opacity:0.4;}
	.st1{fill:#00BF68;}
	.st2{fill:#E6E6E8;}
</style>
<g id="a86c84ac-c86b-458f-bb45-d629fc1b571b" class="st0">
	<g>
		<title>fall</title>
		<path class="st1" d="M39.2,494.9c7.1-5.4,17.2-4.1,22.6,3c5.4,7.1,4.1,17.2-3,22.6c-7.1,5.4-32.9,4.8-32.9,4.8
			S32.1,500.2,39.2,494.9z"/>
		<path class="st1" d="M183.2,792.7c2.3-8.6,11.1-13.8,19.7-11.5c8.6,2.3,13.8,11.1,11.5,19.7l0,0c-2.3,8.6-22.9,24-22.9,24
			S180.9,801.3,183.2,792.7z"/>
		<path class="st2" d="M399.3,659.8c-39.8-2.8-70.8-17.6-91.9-44.1c-15.7-19.6-25.8-45.2-30.2-76.1c-3.1-22.8-2.6-45.9,1.4-68.6
			c21.5-120.5-0.4-182.2-22.5-212.8c-24.3-33.4-54.3-38.1-54.6-38.1l0.3-2c0.4,0.1,31.1,4.6,55.9,38.9
			c14.3,19.7,23.9,45.2,28.6,76.1c5.8,38.3,3.9,84.9-5.6,138.3c-4.1,22.4-4.5,45.4-1.5,68c7,50.7,33.6,112.4,120.3,118.5
			L399.3,659.8z"/>
		<path class="st2" d="M263,519.2c-31.4-2.2-41-24.5-43.5-42.9c-1.1-8.1-0.9-16.4,0.5-24.3c7.5-42.2-0.1-63.8-7.8-74.4
			c-8.4-11.5-18.6-13.1-18.7-13.1l0.3-2c0.4,0,11.2,1.7,20.1,13.9c11.5,15.9,14.4,41.5,8.2,75.9c-1.4,7.8-1.6,15.9-0.5,23.7
			c2.4,17.6,11.7,39,41.7,41.2L263,519.2z"/>
		<path class="st2" d="M280.8,265.7l-1.6-1.1c17.6-24.5,7-45.3-5-58.4c-5.4-5.9-11.6-10.9-18.5-14.8c-30.4-17.3-48.3-35.8-53.1-54.8
			c-3.7-14.7,1.9-24,2.2-24.3l1.7,1.1c0,0.1-5.5,9.1-1.9,22.9c3.2,12.7,14.9,32.3,52.2,53.5c7.1,4.1,13.5,9.1,19,15.2
			C288.1,218.5,299.2,240.1,280.8,265.7z"/>
		<path class="st1" d="M291.7,150.7c-2.2,16.4-17.4,27.8-33.9,25.5c-16.4-2.3-27.8-17.4-25.5-33.9l0,0c2.3-16.4,37.2-49.3,37.2-49.3
			S294,134.2,291.7,150.7z"/>
		<path class="st1" d="M242.2,71.1C240,87.5,224.8,99,208.4,96.6c-16.4-2.2-27.8-17.4-25.5-33.9l0,0c2.3-16.4,37.2-49.3,37.2-49.3
			S244.6,54.7,242.2,71.1z"/>
		<path class="st2" d="M343.1,400.1c-15.5,7.3-33.9,0.7-41.2-14.8c-5.1-10.9-3.5-23.7,4.1-32.9c10.6-12.9,56.1-22.7,58-23l1.2-0.2
			l0,1.2c-0.1,2-0.7,48.5-11.3,61.4l0,0C351,395.3,347.3,398.2,343.1,400.1z M320.1,345.2c-5.5,2.6-10.2,5.4-12.6,8.4
			c-10.2,12.4-8.4,30.7,4,40.9c12.4,10.2,30.7,8.4,40.9-4l0,0c9.2-11.3,10.6-51.3,10.8-58.9C357.7,332.9,335.4,338,320.1,345.2z"/>
		<path class="st1" d="M170.9,176.9c15.8,5,24.6,21.7,19.8,37.5c-5,15.8-21.7,24.6-37.5,19.8l0,0c-15.8-5-42.7-44.7-42.7-44.7
			S155.1,172,170.9,176.9z"/>
		<path class="st1" d="M161,320.7c15.8,5,24.6,21.7,19.8,37.5c-4.8,15.8-21.7,24.6-37.5,19.8c-15.8-5-42.7-44.7-42.7-44.7
			S145.2,315.8,161,320.7z"/>
		<path class="st2" d="M239.6,303.4c-9.1,4.2-30.5,3.8-31.4,3.8l-1.3-0.1l0.3-1.2c0.3-1,6.4-25.4,13.7-30.9l0,0
			c7.5-5.7,18.2-4.2,23.9,3.2c5.7,7.5,4.2,18.2-3.2,23.9l0,0C241,302.6,240.3,303.1,239.6,303.4z M209.5,305.2
			c5.2,0.1,25.1-0.2,31-4.6c6.7-5.1,7.9-14.5,2.9-21.2c-5.1-6.7-14.5-7.9-21.2-2.9C216.3,281,210.8,300.1,209.5,305.2z"/>
		<path class="st1" d="M315,717.3c0.7-8.8,8.4-15.5,17.3-14.9c8.8,0.7,15.5,8.4,14.8,17.2c-0.7,8.8-18.3,27.7-18.3,27.7
			S314.4,726.3,315,717.3z"/>
		<path class="st2" d="M194.8,584.2c-6.3,2.8-12.8,5.2-19.4,7.1l-1.2,0.3l-0.1-1.3c-0.1-1.1-1.4-26.2,3.9-33.6l0,0
			c5.4-7.7,16.2-9.6,23.9-4c7.7,5.4,9.6,16.2,4,23.9C204,579.3,199.6,581.9,194.8,584.2z M176.1,589.1c5-1.6,23.9-7.6,28.2-13.6
			c4.9-6.8,3.2-16.2-3.6-21.1c-6.8-4.9-16.2-3.2-21.1,3.6l0,0C175.4,564,175.8,583.9,176.1,589.1z"/>
	</g>
</g>
</svg>
