<?xml version="1.0" encoding="utf-8"?>
<svg version="1.1" xmlns:xlink="http://www.w3.org/1999/xlink" width="29px" height="32px" xmlns="http://www.w3.org/2000/svg">
  <defs>
    <linearGradient gradientUnits="userSpaceOnUse" x1="14.5533364825098" y1="31.9877339758875" x2="14.5533364825098" y2="0.0127274637144505" id="LinearGradient70">
      <stop id="Stop71" stop-color="#bf9300" offset="0" />
      <stop id="Stop72" stop-color="#bf9300" offset="0.01" />
      <stop id="Stop73" stop-color="#e5c103" offset="0.23" />
      <stop id="Stop74" stop-color="#e6bf03" offset="0.23" />
      <stop id="Stop75" stop-color="#f39601" offset="0.35" />
      <stop id="Stop76" stop-color="#fc7c00" offset="0.44" />
      <stop id="Stop77" stop-color="#ff7300" offset="0.5" />
      <stop id="Stop78" stop-color="#ff4900" offset="0.74" />
      <stop id="Stop79" stop-color="#ff0000" offset="0.99" />
      <stop id="Stop80" stop-color="#ff0000" offset="1" />
    </linearGradient>
  </defs>
  <g transform="matrix(1 0 0 1 -28 -580 )">
    <path d="M 5.54782751233629 15.649091279409  C 5.54888908088996 15.649091279409  4.42256484544676 11.8094845446238  5.03615146946766 8.60194275304391  C 5.03615146946766 8.60194275304391  -8.06678918847337 26.6764246518663  8.44803280096101 31.9883456516389  C 8.44803280096101 31.9883456516389  5.71874004947706 27.7109078526301  6.94697486607252 25.0206076614321  C 8.17520968266798 22.3303074702341  11.3832698518568 20.8816017430234  11.5191506267265 17.0870658530848  C 11.5191506267265 17.0870658530848  12.747385443322 18.1215490538486  12.4066219375941 21.3645036520936  C 12.4066219375941 21.3645036520936  16.3652110742272 17.8457584080018  15.2049166450665 13.2238505805229  C 15.2049166450665 13.2238505805229  24.7590336280909 21.2260717714935  18.8896210948529 31.9883456516389  C 18.8896210948529 31.9883456516389  39.5328831895075 22.7788696879927  21.8237965771951 5.497420035399  C 21.8237965771951 5.497420035399  24.0753834795278 10.1536675541896  22.2335620389114 12.8439677453876  C 22.2335620389114 12.8439677453876  18.4458854394191 1.54191684243698  11.1783871209986 0.0127274637145481  C 11.1783871209986 0.0127274637145481  15.5796503445118 7.79710623792684  5.54782751233629 15.649091279409  Z " fill-rule="nonzero" fill="url(#LinearGradient70)" stroke="none" transform="matrix(1 0 0 1 28 580 )" />
  </g>
</svg>